<svg xmlns="http://www.w3.org/2000/svg" viewBox="0 0 114.23281 33.60531">
  <defs>
    <style>
      .cls-1, .cls-3, .cls-5, .cls-6, .cls-7, .cls-8 {
        fill: none;
      }

      .cls-1, .cls-7 {
        stroke: #ff6b6b;
      }

      .cls-1, .cls-3, .cls-7, .cls-8 {
        stroke-miterlimit: 10;
      }

      .cls-1 {
        stroke-width: 1.30018px;
      }

      .cls-12, .cls-2 {
        fill: #ff6b6b;
      }

      .cls-3, .cls-5 {
        stroke: #fcf8ec;
      }

      .cls-3, .cls-5, .cls-6, .cls-7, .cls-8 {
        stroke-linecap: round;
      }

      .cls-3 {
        stroke-width: 0.86029px;
      }

      .cls-10, .cls-4 {
        fill: #fcf8ec;
      }

      .cls-5, .cls-6 {
        stroke-linejoin: round;
        stroke-width: 1.27972px;
      }

      .cls-6, .cls-8 {
        stroke: #26c485;
      }

      .cls-7, .cls-8 {
        stroke-width: 1.08865px;
      }

      .cls-9 {
        fill: #26c485;
      }

      .cls-10 {
        font-size: 15.67657px;
      }

      .cls-10, .cls-12 {
        font-family: QuarryDigger-Regular, Quarry Digger;
      }

      .cls-11 {
        letter-spacing: -0.06999em;
      }

      .cls-12 {
        font-size: 8.70921px;
        letter-spacing: -0.02999em;
      }

      .cls-13 {
        letter-spacing: 0.11em;
      }

      .cls-14 {
        letter-spacing: 0.14997em;
      }

      .cls-15 {
        letter-spacing: 0.07008em;
      }
    </style>
  </defs>
  <title>Logo_Web</title>
  <g id="Logo">
    <g id="Logo-2" data-name="Logo">
      <path class="cls-1" d="M13.35235,19.15605a5.90645,5.90645,0,1,0,4.544,9.67855h8.88639a3.77213,3.77213,0,1,0,0-7.54425H17.89632A5.89331,5.89331,0,0,0,13.35235,19.15605Z" transform="translate(-2.30287 -8.34819)"/>
      <path class="cls-2" d="M27.95522,25.063a1.18762,1.18762,0,0,1-1.17281,1.17107H16.67735l-.78015.93893a3.30727,3.30727,0,1,1,0-4.22l.76617.91975.00175.00175.01223.0157h.98955l.52707.92325.52707-.92325h2.37007l.52707.92325.52705-.92325H24.538l.52707.92325.52706-.92325h1.19028A1.18913,1.18913,0,0,1,27.95522,25.063Z" transform="translate(-2.30287 -8.34819)"/>
      <path class="cls-3" d="M15.46076,25a2.16768,2.16768,0,1,1-2.16761-2.14929l.00937,0" transform="translate(-2.30287 -8.34819)"/>
      <g id="White_V">
        <path class="cls-4" d="M17.76825,25.79107l.007.00873a.40675.40675,0,0,0,.02441.03315.1757.1757,0,0,0,.01747.01922.273.273,0,0,0,.0349.02791l.02094.01572a.30238.30238,0,0,0,.04713.02616l.02094.01049c.01745.007.0349.014.05411.02092l.02617.007a.137.137,0,0,0,.02443.00874.19788.19788,0,0,1,.03143.00524l.03489.00524.05062.00522h.08727l.05062-.00522.03489-.00524a.19764.19764,0,0,1,.03141-.00524.13664.13664,0,0,0,.02445-.00874l.02617-.007c.01919-.007.03664-.01394.05411-.02092l.02092-.01049a.30147.30147,0,0,0,.04713-.02616l.021-.01572a.2758.2758,0,0,0,.0349-.02791c.00524-.007.01222-.01223.01744-.01922a.40965.40965,0,0,0,.02444-.03315l.007-.00873,1.082-1.9009H18.721l-.52707.92325-.52707-.92325h-.98955Z" transform="translate(-2.30287 -8.34819)"/>
        <path class="cls-4" d="M21.19371,25.79107l.007.00873a.40675.40675,0,0,0,.02441.03315.1757.1757,0,0,0,.01747.01922.27229.27229,0,0,0,.0349.02791l.02094.01572a.30238.30238,0,0,0,.04713.02616l.02094.01049c.01745.007.0349.014.05411.02092l.02617.007a.137.137,0,0,0,.02443.00874.19807.19807,0,0,1,.03143.00524l.03489.00524.05062.00522h.08727l.05062-.00522.03489-.00524a.19745.19745,0,0,1,.03141-.00524.13664.13664,0,0,0,.02445-.00874l.02616-.007c.0192-.007.03665-.01394.05412-.02092L21.918,25.922a.3009.3009,0,0,0,.04712-.02616l.021-.01572a.275.275,0,0,0,.03489-.02791c.00525-.007.01223-.01223.01745-.01922a.40965.40965,0,0,0,.02444-.03315l.007-.00873,1.08205-1.9009H22.14523l-.52705.92325-.52582-.92325h-.98955Z" transform="translate(-2.30287 -8.34819)"/>
        <path class="cls-4" d="M24.63939,25.79107l.007.00873a.40675.40675,0,0,0,.02441.03315.1757.1757,0,0,0,.01747.01922.27229.27229,0,0,0,.0349.02791l.02094.01572a.30238.30238,0,0,0,.04713.02616l.02094.01049c.01745.007.0349.014.05411.02092l.02617.007a.137.137,0,0,0,.02443.00874.19788.19788,0,0,1,.03143.00524l.03489.00524.05062.00522h.08727l.05062-.00522.03489-.00524a.19745.19745,0,0,1,.03141-.00524.13664.13664,0,0,0,.02445-.00874l.02616-.007c.0192-.007.03665-.01394.05412-.02092l.02092-.01049a.3009.3009,0,0,0,.04712-.02616l.021-.01572a.2758.2758,0,0,0,.0349-.02791c.00524-.007.01222-.01223.01744-.01922a.40965.40965,0,0,0,.02444-.03315l.007-.00873,1.08205-1.9009H25.59219l-.52712.92325-.52707-.92325h-.98951Z" transform="translate(-2.30287 -8.34819)"/>
      </g>
    </g>
    <path class="cls-5" d="M5.10384,33.023A16.04288,16.04288,0,0,1,27.01162,11.12347" transform="translate(-2.30287 -8.34819)"/>
    <path class="cls-6" d="M32.89616,16.977A16.04288,16.04288,0,0,1,10.98838,38.87653" transform="translate(-2.30287 -8.34819)"/>
  </g>
  <g id="Name">
    <g id="Red_Lines" data-name="Red Lines">
      <line class="cls-7" x1="61.51271" y1="17.38442" x2="41.34763" y2="17.38442"/>
      <line class="cls-7" x1="67.25147" y1="17.38442" x2="63.98039" y2="17.38442"/>
      <line class="cls-7" x1="70.87612" y1="17.38442" x2="69.72419" y2="17.38442"/>
      <circle class="cls-2" cx="73.35397" cy="17.38442" r="0.54433"/>
    </g>
    <g id="Green_Lines" data-name="Green Lines">
      <line class="cls-8" x1="89.53731" y1="17.38442" x2="109.70239" y2="17.38442"/>
      <line class="cls-8" x1="83.79856" y1="17.38442" x2="87.06964" y2="17.38442"/>
      <line class="cls-8" x1="80.17391" y1="17.38442" x2="81.32583" y2="17.38442"/>
      <circle class="cls-9" cx="77.69605" cy="17.38442" r="0.54433"/>
    </g>
    <text class="cls-10" transform="translate(37.54589 15.20981)">C<tspan class="cls-11" x="10.45605" y="0">R</tspan><tspan x="20.84961" y="0">YPTEX</tspan></text>
    <text class="cls-12" transform="translate(59.07079 26.78207)">V<tspan class="cls-13" x="6.47949" y="0">A</tspan><tspan class="cls-14" x="14.59619" y="0">U</tspan><tspan class="cls-15" x="22.26025" y="0">L</tspan><tspan class="cls-14" x="27.56494" y="0">T</tspan></text>
  </g>
</svg>
