<svg xmlns="http://www.w3.org/2000/svg" viewBox="0 0 200 50">
  <defs>
    <style>
      .cls-1 {
        fill: #ff5668;
      }

      .cls-2 {
        fill: #25c472;
      }

      .cls-3 {
        fill: #fcf8ec;
      }
    </style>
  </defs>
  <title>Web_Name_Fix</title>
  <g id="Dots">
    <g id="Red_Lines" data-name="Red Lines">
      <circle class="cls-1" cx="109.06275" cy="25" r="3"/>
    </g>
    <g id="Green_Lines" data-name="Green Lines">
      <circle class="cls-2" cx="118.90625" cy="25" r="3"/>
    </g>
  </g>
  <g id="Name">
    <g>
      <path class="cls-3" d="M19.42334,31.915a5.43982,5.43982,0,0,1-2.42383.5581h-.75976a5.39358,5.39358,0,0,1-2.76709-.73779,5.53475,5.53475,0,0,1-2.00782-1.98926,5.28493,5.28493,0,0,1-.74121-2.74463V23.14941a5.33609,5.33609,0,0,1,.74121-2.75439,5.51942,5.51942,0,0,1,2.00782-1.99756,5.394,5.394,0,0,1,2.76709-.73828h.75976a5.37037,5.37037,0,0,1,2.42383.56689,5.64969,5.64969,0,0,1,1.917,1.53907l-2.31494,1.67431a2.815,2.815,0,0,0-.9043-.68408,2.5586,2.5586,0,0,0-1.12158-.252h-.75976a2.55555,2.55555,0,0,0-1.32911.35986,2.749,2.749,0,0,0-.96777.96289,2.52538,2.52538,0,0,0-.36182,1.32324v3.85205a2.52243,2.52243,0,0,0,.36182,1.32276,2.66982,2.66982,0,0,0,.96777.9541,2.60444,2.60444,0,0,0,1.32911.35107h.75976a2.5586,2.5586,0,0,0,1.12158-.252,2.81487,2.81487,0,0,0,.9043-.68408l2.31494,1.69189A5.54419,5.54419,0,0,1,19.42334,31.915Z"/>
      <path class="cls-3" d="M30.438,26.749H27.291v5.49024H24.415V17.83936h6.76465a4.36648,4.36648,0,0,1,2.24267.603,4.54626,4.54626,0,0,1,1.63672,1.62012,4.26421,4.26421,0,0,1,.606,2.22266,4.3281,4.3281,0,0,1-.64209,2.29492,4.451,4.451,0,0,1-1.709,1.62939l2.731,6.02979H32.98828Zm-3.147-2.86181h3.88867a1.60207,1.60207,0,1,0,0-3.2041H27.291Z"/>
      <path class="cls-3" d="M50.80371,17.83936,45.667,28.09912v4.14014H42.80957V28.09912L37.67285,17.83936H40.874l3.36426,6.75,3.38233-6.75Z"/>
      <path class="cls-3" d="M62.46973,18.46045a4.53308,4.53308,0,0,1,1.60986,1.69189,4.81482,4.81482,0,0,1,.59668,2.38477,4.86342,4.86342,0,0,1-.59668,2.394,4.51631,4.51631,0,0,1-1.60986,1.70117,4.17487,4.17487,0,0,1-2.22461.6211H56.71826v4.98584H53.87842V17.83936h6.3667A4.175,4.175,0,0,1,62.46973,18.46045Zm-1.08545,5.418a2.185,2.185,0,0,0-.00879-2.67334,1.433,1.433,0,0,0-1.13037-.54H56.71826v3.74414h3.52686A1.43266,1.43266,0,0,0,61.38428,23.87842Z"/>
      <path class="cls-3" d="M77.69824,17.83936v2.84375H74.063V32.23926H71.20508V20.68311H67.56982V17.83936Z"/>
      <path class="cls-3" d="M90.10645,20.68311h-6.4751v2.93408h4.46728v2.84424H83.63135V29.395h6.4751v2.84424h-9.333V17.83936h9.333Z"/>
      <path class="cls-3" d="M105.98633,17.83936l-4.7749,7.23584,4.73877,7.16406h-3.41846l-3.03858-4.58985-3.0205,4.58985H93.03613L97.793,25.0752,93,17.83936h3.41846l3.0747,4.644,3.07471-4.644Z"/>
    </g>
    <g>
      <path class="cls-1" d="M132.46582,17.8291h2.96973l-4.644,14.3999h-3.2041l-4.64355-14.3999h2.96972L129.18945,27.981Z"/>
      <path class="cls-1" d="M146.77588,32.229l-1.314-3.72607H140.5835L139.252,32.229h-3.00634l5.09423-14.3999h3.34766l5.09424,14.3999Zm-5.292-6.24609h3.07763L143.01367,21.645Z"/>
      <path class="cls-1" d="M164.811,26.95508a5.307,5.307,0,0,1-.7378,2.74512A5.54306,5.54306,0,0,1,162.084,31.689a5.30218,5.30218,0,0,1-2.74462.73829h-.57618a5.30266,5.30266,0,0,1-2.74511-.73829,5.53788,5.53788,0,0,1-1.98877-1.98876,5.30271,5.30271,0,0,1-.73828-2.74512v-9.126h2.82617v9.126a2.52977,2.52977,0,0,0,.35986,1.32275,2.74047,2.74047,0,0,0,.96289.96338,2.536,2.536,0,0,0,1.32324.35986h.57618a2.53676,2.53676,0,0,0,1.32275-.35986,2.7444,2.7444,0,0,0,.96289-.96338,2.5302,2.5302,0,0,0,.36035-1.32275v-9.126H164.811Z"/>
      <path class="cls-1" d="M171.99365,29.38477h5.3999V32.229h-8.2622V17.8291h2.8623Z"/>
      <path class="cls-1" d="M189.99316,17.8291v2.84375h-3.61767V32.229h-2.84424V20.67285h-3.61768V17.8291Z"/>
    </g>
  </g>
</svg>
